HIERARCHY
ROOT Pelvis
{
	OFFSET -0.217368 -24.078917 2.858379
	CHANNELS 6 Xposition Yposition Zposition Zrotation Yrotation Xrotation 
	JOINT Left_hip
	{
		OFFSET 5.858135 -8.228005 -1.766408
		CHANNELS 3 Zrotation Yrotation Xrotation
		JOINT Left_knee
		{
			OFFSET 4.345143 -38.646942 0.803700
			CHANNELS 3 Zrotation Yrotation Xrotation
			JOINT Left_ankle
			{
				OFFSET -1.479033 -42.687447 -3.742800
				CHANNELS 3 Zrotation Yrotation Xrotation
				JOINT Left_foot
				{
					OFFSET 4.105436 -6.028605 12.204244
					CHANNELS 3 Zrotation Yrotation Xrotation
					End Site
					{
						OFFSET 0.000000 0.000000 0.000000
					}
				}
			}
		}
	}
	JOINT Right_hip
	{
		OFFSET -6.030973 -9.051328 -1.354253
		CHANNELS 3 Zrotation Yrotation Xrotation
		JOINT Right_knee
		{
			OFFSET -4.325663 -38.368790 -0.484304
			CHANNELS 3 Zrotation Yrotation Xrotation
			JOINT Right_ankle
			{
				OFFSET 1.905555 -42.004566 -3.456167
				CHANNELS 3 Zrotation Yrotation Xrotation
				JOINT Right_foot
				{
					OFFSET -3.483987 -6.210554 13.032330
					CHANNELS 3 Zrotation Yrotation Xrotation
					End Site
					{
						OFFSET 0.000000 0.000000 0.000000
					}
				}
			}
		}
	}
	JOINT Spine1
	{
		OFFSET 0.443945 12.440353 -3.838522
		CHANNELS 3 Zrotation Yrotation Xrotation
		JOINT Spine2
		{
			OFFSET 0.448844 13.795640 2.682033
			CHANNELS 3 Zrotation Yrotation Xrotation
			JOINT Spine3
			{
				OFFSET -0.226460 5.603239 0.285504
				CHANNELS 3 Zrotation Yrotation Xrotation
				JOINT Neck
				{
					OFFSET -1.339018 21.163553 -3.346758
					CHANNELS 3 Zrotation Yrotation Xrotation
					JOINT Head
					{
						OFFSET 1.011321 8.893734 5.040987
						CHANNELS 3 Zrotation Yrotation Xrotation
						End Site
						{
							OFFSET 0.000000 0.000000 0.000000
						}
					}
				}
				JOINT Left_collar
				{
					OFFSET 7.170247 11.399971 -1.889817
					CHANNELS 3 Zrotation Yrotation Xrotation
					JOINT Left_shoulder
					{
						OFFSET 12.292140 4.520507 -1.904600
						CHANNELS 3 Zrotation Yrotation Xrotation
						JOINT Left_elbow
						{
							OFFSET 25.533188 -1.564902 -2.294648
							CHANNELS 3 Zrotation Yrotation Xrotation
							JOINT Left_wrist
							{
								OFFSET 26.570929 1.269810 -0.737473
								CHANNELS 3 Zrotation Yrotation Xrotation
								JOINT Left_palm
								{
									OFFSET 8.669054 -1.063602 -1.559429
									CHANNELS 3 Zrotation Yrotation Xrotation
									End Site
									{
										OFFSET 0.000000 0.000000 0.000000
									}
								}
							}
						}
					}
				}
				JOINT Right_collar
				{
					OFFSET -8.295364 11.247234 -2.370738
					CHANNELS 3 Zrotation Yrotation Xrotation
					JOINT Right_shoulder
					{
						OFFSET -11.322830 4.685326 -0.847207
						CHANNELS 3 Zrotation Yrotation Xrotation
						JOINT Right_elbow
						{
							OFFSET -26.012751 -1.436928 -3.126872
							CHANNELS 3 Zrotation Yrotation Xrotation
							JOINT Right_wrist
							{
								OFFSET -26.910841 0.679372 -0.602677
								CHANNELS 3 Zrotation Yrotation Xrotation
								JOINT Right_palm
								{
									OFFSET -8.875370 -0.865157 -1.010708
									CHANNELS 3 Zrotation Yrotation Xrotation
									End Site
									{
										OFFSET 0.000000 0.000000 0.000000
									}
								}
							}
						}
					}
				}
			}
		}
	}
}
MOTION
Frames: 16
Frame Time: 0.016667
-0.217368 72.262115 2.858379 -0.335140 -4.125061 3.371805 2.922719 -0.402621 -5.590366 -0.473403 -0.069685 4.039821 2.337746 8.024655 10.266801 0.000000 0.000000 0.000000 -1.374440 0.197189 -1.878482 1.678695 -0.052809 5.021270 -5.895225 -15.941131 11.485056 0.000000 0.000000 0.000000 2.081071 0.024416 -0.702416 0.402776 0.396741 -19.348554 -2.011323 4.202960 17.991488 0.442956 0.546433 -11.148729 0.000000 0.000000 0.000000 -1.428662 -15.535501 5.384694 -13.751086 -57.408805 3.173017 86.455700 -43.995491 -38.522249 0.000000 0.000000 0.000000 0.000000 0.000000 0.000000 -4.178663 17.438757 5.730722 1.172513 47.474950 -2.309126 -80.328029 28.640588 -21.006098 0.000000 0.000000 0.000000 0.000000 0.000000 0.000000 
-0.344428 72.313164 2.883786 -0.465757 -3.044754 3.890299 3.600448 -0.411487 -6.157657 -1.741575 0.091571 5.271678 1.932534 6.890235 8.597868 0.000000 0.000000 0.000000 -0.665801 0.190651 -1.859400 0.911403 0.044609 4.451615 -6.271258 -16.716840 12.690490 0.000000 0.000000 0.000000 3.268698 0.046686 -1.058110 -0.438042 0.631557 -19.071550 -2.401289 5.270853 17.638033 1.106280 0.221748 -12.373678 0.000000 0.000000 0.000000 -2.860324 -15.035266 5.274716 -19.531073 -59.684824 6.307637 93.338102 -46.691325 -45.717278 0.000000 0.000000 0.000000 0.000000 0.000000 0.000000 -3.882546 17.258195 5.695757 -3.192361 46.282319 -3.804185 -80.461237 28.457020 -20.903566 0.000000 0.000000 0.000000 0.000000 0.000000 0.000000 
-0.460327 72.276291 2.955772 -0.172826 -4.034248 3.618700 3.226632 -0.344065 -4.841451 -1.913810 0.149561 3.491443 2.431964 7.938006 9.303361 0.000000 0.000000 0.000000 -1.366332 0.204599 -1.963282 0.542929 0.086476 4.116357 -5.804147 -15.810254 11.866108 0.000000 0.000000 0.000000 2.898468 0.012959 -0.553701 -0.457704 0.638689 -19.142106 -1.907980 8.321404 18.729130 3.721616 -1.374001 -12.801924 0.000000 0.000000 0.000000 -3.880733 -15.515033 5.513183 -21.722403 -59.379981 7.350006 97.892542 -49.942743 -52.488942 0.000000 0.000000 0.000000 0.000000 0.000000 0.000000 -2.341393 16.197058 5.457574 -5.297791 45.970756 -4.520193 -84.835463 29.838822 -23.787122 0.000000 0.000000 0.000000 0.000000 0.000000 0.000000 
-0.579040 72.391899 3.000401 -0.459767 -2.431424 3.600556 3.733102 -0.355195 -5.294003 -1.709172 0.113588 3.865380 1.547673 6.551097 9.734936 0.000000 0.000000 0.000000 -0.794114 0.097805 -0.852326 0.880014 0.004095 3.048858 -6.914805 -17.921110 14.082030 0.000000 0.000000 0.000000 2.417511 -0.033437 0.222336 -0.125274 0.546708 -19.300832 -1.500926 8.081077 18.194767 2.209400 -0.325094 -13.911943 0.000000 0.000000 0.000000 -6.083390 -14.499845 5.219432 -27.232817 -58.242647 9.814119 102.915303 -54.225703 -61.315578 0.000000 0.000000 0.000000 0.000000 0.000000 0.000000 -3.366876 17.047670 5.666024 -5.123135 45.743091 -4.430099 -83.709046 28.120136 -21.828815 0.000000 0.000000 0.000000 0.000000 0.000000 0.000000 
-0.658704 72.415726 3.019836 -0.440573 -2.205333 3.336547 3.760019 -0.364162 -5.463192 -1.389341 0.052714 4.535818 1.582260 6.441046 9.145152 0.000000 0.000000 0.000000 -1.400265 0.062036 -0.336147 1.484797 -0.084104 2.760617 -6.891947 -17.904331 14.556683 0.000000 0.000000 0.000000 2.397070 -0.031792 0.198995 -0.466811 0.631172 -18.649112 -0.978627 8.620810 18.352534 1.812196 -0.036954 -14.427800 0.000000 0.000000 0.000000 -7.720496 -14.308877 5.213687 -29.871620 -55.246774 10.206857 108.453844 -57.837351 -70.488792 0.000000 0.000000 0.000000 0.000000 0.000000 0.000000 -2.845547 17.441393 5.832791 -5.255410 45.731305 -4.475342 -85.380722 29.307382 -23.533750 0.000000 0.000000 0.000000 0.000000 0.000000 0.000000 
-0.677285 72.468933 3.044183 -0.086926 -1.791904 3.015210 3.491900 -0.350315 -5.077178 -1.576934 0.086699 4.249688 1.705554 6.837515 9.800579 0.000000 0.000000 0.000000 -1.437147 -0.015803 0.562486 1.065757 -0.051237 2.042115 -7.773605 -19.415290 16.050446 0.000000 0.000000 0.000000 2.156873 -0.063431 0.770143 -1.098886 0.807232 -18.039431 -0.390059 9.464535 18.196432 2.448699 -0.389556 -14.756085 0.000000 0.000000 0.000000 -8.152945 -13.722514 4.979905 -33.990640 -52.965873 11.315283 116.431788 -59.925887 -81.017299 0.000000 0.000000 0.000000 0.000000 0.000000 0.000000 -2.389980 17.453370 5.871542 -4.822414 46.209476 -4.379778 -84.702575 29.287900 -23.243352 0.000000 0.000000 0.000000 0.000000 0.000000 0.000000 
-0.667250 72.418327 3.047447 0.031669 -1.580675 2.471118 3.519566 -0.302961 -4.310138 -1.794687 0.128150 3.743671 2.451080 8.129570 9.930164 0.000000 0.000000 0.000000 -1.934914 -0.065717 1.331678 1.314758 -0.089417 1.784173 -7.844284 -19.533472 16.288851 0.000000 0.000000 0.000000 1.948948 -0.120504 1.812075 -1.388140 0.893738 -18.055919 0.001510 9.841887 18.751595 2.754327 -0.579626 -14.689542 0.000000 0.000000 0.000000 -9.106277 -13.065022 4.727006 -37.596422 -48.545902 11.222713 131.777469 -63.965332 -103.291041 0.000000 0.000000 0.000000 0.000000 0.000000 0.000000 -2.655945 17.949535 6.015186 -5.962316 46.303979 -4.800829 -79.630318 26.461789 -18.976732 0.000000 0.000000 0.000000 0.000000 0.000000 0.000000 
-0.658350 72.415878 3.050118 -0.065474 -1.006794 2.236870 3.801004 -0.247039 -3.472302 -1.464965 0.103076 2.711889 2.059045 7.563392 10.283968 0.000000 0.000000 0.000000 -2.466483 -0.092393 1.908010 1.469838 -0.130456 0.956363 -8.081837 -19.922512 17.205626 0.000000 0.000000 0.000000 1.696087 -0.163306 2.691796 -1.521845 0.932145 -17.918075 0.169800 9.709703 18.859451 3.320568 -1.029586 -13.668827 0.000000 0.000000 0.000000 -9.567140 -11.726391 4.147157 -41.610950 -42.972285 10.515388 151.346873 -65.786273 -130.868956 0.000000 0.000000 0.000000 0.000000 0.000000 0.000000 -2.930944 18.346604 6.123205 -7.195726 46.465186 -5.268614 -75.250535 23.915171 -15.632349 0.000000 0.000000 0.000000 0.000000 0.000000 0.000000 
-0.658304 72.448410 3.045612 -0.054589 -1.003269 2.711802 3.713315 -0.258166 -3.633892 -1.219632 0.080658 2.269741 1.801317 7.241717 10.691417 0.000000 0.000000 0.000000 -2.632781 -0.055997 1.521632 1.579523 -0.153434 0.551770 -7.826921 -19.517749 17.223189 0.000000 0.000000 0.000000 1.851938 -0.159806 2.543487 -1.878249 1.037426 -17.716143 0.738006 10.355571 18.799160 4.056733 -1.534187 -13.221361 0.000000 0.000000 0.000000 -10.533773 -10.035302 3.399713 -43.761779 -36.068523 8.377212 169.103427 -65.332587 -156.621417 0.000000 0.000000 0.000000 0.000000 0.000000 0.000000 -2.978185 18.614546 6.207156 -8.764476 46.955463 -5.918413 -70.914117 19.626492 -11.474591 0.000000 0.000000 0.000000 0.000000 0.000000 0.000000 
-0.704059 72.419724 3.042125 -0.067569 -1.102953 2.852867 3.764768 -0.285002 -4.111008 -0.895263 0.030819 2.562340 1.313411 6.361974 10.456577 0.000000 0.000000 0.000000 -2.529426 -0.037920 1.241094 1.569586 -0.146524 0.776644 -7.567894 -19.094461 16.719138 0.000000 0.000000 0.000000 1.847489 -0.164490 2.628193 -2.339103 1.174594 -17.112370 1.038289 11.041878 18.589845 5.190358 -2.386005 -12.098498 0.000000 0.000000 0.000000 -11.821936 -8.422069 2.651743 -45.474405 -26.797932 5.026305 -172.045180 -62.731235 173.729293 0.000000 0.000000 0.000000 0.000000 0.000000 0.000000 -1.754502 18.852537 6.396240 -10.149481 47.178835 -6.470301 -67.399230 16.823939 -8.935725 0.000000 0.000000 0.000000 0.000000 0.000000 0.000000 
-0.747021 72.400208 3.048293 -0.030318 -0.965889 2.914472 3.674836 -0.299866 -4.325569 -0.412666 -0.043389 2.897164 1.318865 6.272338 10.113867 0.000000 0.000000 0.000000 -2.590804 -0.016671 0.993401 1.781122 -0.167603 0.893967 -7.093455 -18.315993 16.383842 0.000000 0.000000 0.000000 1.546633 -0.155780 2.640459 -2.726840 1.294238 -16.438882 1.629762 11.908153 18.029873 6.145812 -3.065495 -11.601280 0.000000 0.000000 0.000000 -11.755672 -6.045143 1.558887 -47.536762 -18.322819 1.872767 -157.775896 -61.381481 149.845373 0.000000 0.000000 0.000000 0.000000 0.000000 0.000000 -0.917916 18.417537 6.320503 -8.961629 47.902719 -6.150110 -66.556029 16.024888 -8.288801 0.000000 0.000000 0.000000 0.000000 0.000000 0.000000 
-0.780024 72.365425 3.078197 -0.042520 -1.297843 2.989914 4.142971 -0.316730 -4.852094 -0.823340 -0.011847 3.786179 1.503570 6.439986 9.608971 0.000000 0.000000 0.000000 -2.700164 0.038221 0.320284 1.548191 -0.120782 1.672276 -6.372952 -17.077749 15.421514 0.000000 0.000000 0.000000 1.412435 -0.163430 2.863606 -3.346617 1.492188 -15.905992 2.099463 13.159565 17.074065 7.693092 -4.053998 -11.644977 0.000000 0.000000 0.000000 -11.449687 -4.440209 0.842239 -48.725481 -9.790905 -1.516201 -142.223381 -58.738729 123.252975 0.000000 0.000000 0.000000 0.000000 0.000000 0.000000 1.303034 16.998944 5.989098 -5.548815 48.794374 -4.974955 -67.254684 18.191421 -9.780681 0.000000 0.000000 0.000000 0.000000 0.000000 0.000000 
-0.801219 72.318756 3.102657 0.051293 -1.459270 2.903323 4.043008 -0.324079 -4.928811 -0.976046 -0.005827 4.401799 1.746432 6.664054 8.936618 0.000000 0.000000 0.000000 -2.662090 0.031635 0.393267 1.404584 -0.102115 1.720147 -6.147672 -16.630503 14.455692 0.000000 0.000000 0.000000 1.051760 -0.136390 2.561930 -3.634092 1.588401 -15.424609 2.765767 13.475217 16.991700 8.229721 -4.498545 -11.069516 0.000000 0.000000 0.000000 -11.054803 -3.133648 0.279123 -49.344864 -4.234756 -3.766970 -136.429784 -56.511679 112.289013 0.000000 0.000000 0.000000 0.000000 0.000000 0.000000 2.907326 16.191096 5.796357 0.241416 49.245412 -2.769217 -71.216105 23.274163 -14.063125 0.000000 0.000000 0.000000 0.000000 0.000000 0.000000 
-0.814048 72.289207 3.103057 -0.017894 -1.192166 3.212906 4.014132 -0.361961 -5.586305 -1.403644 0.047403 4.874758 1.699936 6.535748 8.769187 0.000000 0.000000 0.000000 -2.304639 0.088295 -0.435835 1.230628 -0.058616 2.494877 -5.587008 -15.552570 13.243491 0.000000 0.000000 0.000000 0.745405 -0.096436 1.914234 -2.966952 1.378698 -13.532873 2.573867 13.766544 15.065002 8.025141 -4.228671 -11.878048 0.000000 0.000000 0.000000 -11.699205 -2.536015 -0.039666 -48.875638 -1.812189 -4.682208 -133.771870 -56.680894 108.666594 0.000000 0.000000 0.000000 0.000000 0.000000 0.000000 6.163502 14.948146 5.494398 8.900566 48.733147 0.586216 -78.293855 33.434029 -24.108964 0.000000 0.000000 0.000000 0.000000 0.000000 0.000000 
-0.822803 72.217430 3.003421 0.073127 -2.033884 3.420882 3.708789 -0.396382 -5.978649 -1.452188 0.039967 5.563094 1.737156 6.558344 8.623414 0.000000 0.000000 0.000000 -2.387480 0.152530 -1.227963 0.903707 -0.001946 2.958286 -5.123908 -14.636052 12.411743 0.000000 0.000000 0.000000 0.786042 -0.074318 1.428076 -3.071344 1.423489 -11.373415 2.637767 13.624280 12.627368 7.356907 -3.793576 -11.919994 0.000000 0.000000 0.000000 -12.067686 -2.744607 0.026612 -48.063976 -3.714627 -3.865813 -140.895966 -60.463951 122.974138 0.000000 0.000000 0.000000 0.000000 0.000000 0.000000 8.470585 13.834827 5.130904 19.332667 46.818127 4.320000 -83.829075 41.390776 -33.620894 0.000000 0.000000 0.000000 0.000000 0.000000 0.000000 
-0.825165 72.225822 2.827155 0.342844 -2.991170 4.274010 3.560470 -0.478921 -7.248421 -1.362955 0.025231 5.586803 1.948921 7.210721 9.657231 0.000000 0.000000 0.000000 -2.433767 0.298787 -3.080401 0.435730 0.096591 3.972986 -4.912315 -14.178647 11.824730 0.000000 0.000000 0.000000 1.564987 -0.017393 0.085574 -3.229132 1.488011 -10.126814 2.033688 14.132187 11.283999 7.806509 -4.028642 -12.240316 0.000000 0.000000 0.000000 -13.218976 -4.795731 0.904518 -44.790295 -12.129974 -0.580011 -162.084958 -66.673175 159.119181 0.000000 0.000000 0.000000 0.000000 0.000000 0.000000 11.745729 13.065091 4.910396 28.614038 43.635377 6.962836 -92.641560 51.007823 -48.673833 0.000000 0.000000 0.000000 0.000000 0.000000 0.000000 
